<mxfile host="Electron" agent="Mozilla/5.0 (X11; Linux x86_64) AppleWebKit/537.36 (KHTML, like Gecko) draw.io/26.0.4 Chrome/128.0.6613.186 Electron/32.2.5 Safari/537.36" version="26.0.4">
  <diagram name="Page-1" id="manYZ3UFJg2sptMcLF4e">
    <mxGraphModel dx="1114" dy="1198" grid="1" gridSize="10" guides="1" tooltips="1" connect="1" arrows="1" fold="1" page="1" pageScale="1" pageWidth="850" pageHeight="1100" math="0" shadow="0">
      <root>
        <mxCell id="0" />
        <mxCell id="1" parent="0" />
        <mxCell id="_YYuf0stOzUwYTYhCYQe-1" value="Auto Scaling group" style="points=[[0,0],[0.25,0],[0.5,0],[0.75,0],[1,0],[1,0.25],[1,0.5],[1,0.75],[1,1],[0.75,1],[0.5,1],[0.25,1],[0,1],[0,0.75],[0,0.5],[0,0.25]];outlineConnect=0;gradientColor=none;html=1;whiteSpace=wrap;fontSize=12;fontStyle=0;container=1;pointerEvents=0;collapsible=0;recursiveResize=0;shape=mxgraph.aws4.groupCenter;grIcon=mxgraph.aws4.group_auto_scaling_group;grStroke=1;strokeColor=#D86613;fillColor=none;verticalAlign=top;align=center;fontColor=#D86613;dashed=1;spacingTop=25;" parent="1" vertex="1">
          <mxGeometry x="170" y="370" width="520" height="120" as="geometry" />
        </mxCell>
        <mxCell id="_YYuf0stOzUwYTYhCYQe-2" value="" style="sketch=0;outlineConnect=0;fontColor=#232F3E;gradientColor=none;fillColor=#ED7100;strokeColor=none;dashed=0;verticalLabelPosition=bottom;verticalAlign=top;align=center;html=1;fontSize=12;fontStyle=0;aspect=fixed;pointerEvents=1;shape=mxgraph.aws4.instance2;" parent="_YYuf0stOzUwYTYhCYQe-1" vertex="1">
          <mxGeometry x="21" y="60" width="48" height="48" as="geometry" />
        </mxCell>
        <mxCell id="_YYuf0stOzUwYTYhCYQe-3" value="" style="sketch=0;outlineConnect=0;fontColor=#232F3E;gradientColor=none;fillColor=#ED7100;strokeColor=none;dashed=0;verticalLabelPosition=bottom;verticalAlign=top;align=center;html=1;fontSize=12;fontStyle=0;aspect=fixed;pointerEvents=1;shape=mxgraph.aws4.instance2;" parent="_YYuf0stOzUwYTYhCYQe-1" vertex="1">
          <mxGeometry x="81" y="60" width="48" height="48" as="geometry" />
        </mxCell>
        <mxCell id="_YYuf0stOzUwYTYhCYQe-4" value="" style="sketch=0;outlineConnect=0;fontColor=#232F3E;gradientColor=none;fillColor=#ED7100;strokeColor=none;dashed=0;verticalLabelPosition=bottom;verticalAlign=top;align=center;html=1;fontSize=12;fontStyle=0;aspect=fixed;pointerEvents=1;shape=mxgraph.aws4.instance2;" parent="_YYuf0stOzUwYTYhCYQe-1" vertex="1">
          <mxGeometry x="141" y="60" width="48" height="48" as="geometry" />
        </mxCell>
        <mxCell id="_YYuf0stOzUwYTYhCYQe-5" value="" style="sketch=0;outlineConnect=0;fontColor=#232F3E;gradientColor=none;fillColor=#ED7100;strokeColor=none;dashed=0;verticalLabelPosition=bottom;verticalAlign=top;align=center;html=1;fontSize=12;fontStyle=0;aspect=fixed;pointerEvents=1;shape=mxgraph.aws4.instance2;" parent="_YYuf0stOzUwYTYhCYQe-1" vertex="1">
          <mxGeometry x="201" y="60" width="48" height="48" as="geometry" />
        </mxCell>
        <mxCell id="_YYuf0stOzUwYTYhCYQe-7" value="" style="sketch=0;outlineConnect=0;fontColor=#232F3E;gradientColor=none;fillColor=#ED7100;strokeColor=none;dashed=0;verticalLabelPosition=bottom;verticalAlign=top;align=center;html=1;fontSize=12;fontStyle=0;aspect=fixed;pointerEvents=1;shape=mxgraph.aws4.instance2;" parent="_YYuf0stOzUwYTYhCYQe-1" vertex="1">
          <mxGeometry x="331" y="60" width="48" height="48" as="geometry" />
        </mxCell>
        <mxCell id="_YYuf0stOzUwYTYhCYQe-8" value="" style="sketch=0;outlineConnect=0;fontColor=#232F3E;gradientColor=none;fillColor=#ED7100;strokeColor=none;dashed=0;verticalLabelPosition=bottom;verticalAlign=top;align=center;html=1;fontSize=12;fontStyle=0;aspect=fixed;pointerEvents=1;shape=mxgraph.aws4.instance2;" parent="_YYuf0stOzUwYTYhCYQe-1" vertex="1">
          <mxGeometry x="391" y="60" width="48" height="48" as="geometry" />
        </mxCell>
        <mxCell id="_YYuf0stOzUwYTYhCYQe-9" value="" style="sketch=0;outlineConnect=0;fontColor=#232F3E;gradientColor=none;fillColor=#ED7100;strokeColor=none;dashed=0;verticalLabelPosition=bottom;verticalAlign=top;align=center;html=1;fontSize=12;fontStyle=0;aspect=fixed;pointerEvents=1;shape=mxgraph.aws4.instance2;" parent="_YYuf0stOzUwYTYhCYQe-1" vertex="1">
          <mxGeometry x="451" y="60" width="48" height="48" as="geometry" />
        </mxCell>
        <mxCell id="_YYuf0stOzUwYTYhCYQe-10" value="" style="shape=curlyBracket;whiteSpace=wrap;html=1;rounded=1;flipH=1;labelPosition=right;verticalLabelPosition=middle;align=left;verticalAlign=middle;rotation=90;" parent="1" vertex="1">
          <mxGeometry x="237" y="450" width="20" height="110" as="geometry" />
        </mxCell>
        <mxCell id="_YYuf0stOzUwYTYhCYQe-11" value="" style="shape=curlyBracket;whiteSpace=wrap;html=1;rounded=1;flipH=1;labelPosition=right;verticalLabelPosition=middle;align=left;verticalAlign=middle;rotation=90;" parent="1" vertex="1">
          <mxGeometry x="576" y="420" width="20" height="170" as="geometry" />
        </mxCell>
        <mxCell id="_YYuf0stOzUwYTYhCYQe-12" value="Minimum Capacity (2&lt;span style=&quot;background-color: transparent; color: light-dark(rgb(0, 0, 0), rgb(255, 255, 255));&quot;&gt;)&lt;/span&gt;" style="text;html=1;align=center;verticalAlign=middle;resizable=0;points=[];autosize=1;strokeColor=none;fillColor=none;" parent="1" vertex="1">
          <mxGeometry x="177" y="510" width="140" height="30" as="geometry" />
        </mxCell>
        <mxCell id="_YYuf0stOzUwYTYhCYQe-13" value="Scale Out as Needed (3)" style="text;html=1;align=center;verticalAlign=middle;resizable=0;points=[];autosize=1;strokeColor=none;fillColor=none;" parent="1" vertex="1">
          <mxGeometry x="506" y="510" width="160" height="30" as="geometry" />
        </mxCell>
        <mxCell id="_YYuf0stOzUwYTYhCYQe-14" value="" style="shape=curlyBracket;whiteSpace=wrap;html=1;rounded=1;flipH=1;labelPosition=right;verticalLabelPosition=middle;align=left;verticalAlign=middle;rotation=90;" parent="1" vertex="1">
          <mxGeometry x="297" y="440" width="20" height="230" as="geometry" />
        </mxCell>
        <mxCell id="_YYuf0stOzUwYTYhCYQe-15" value="Desired Capacity (4)" style="text;html=1;align=center;verticalAlign=middle;resizable=0;points=[];autosize=1;strokeColor=none;fillColor=none;" parent="1" vertex="1">
          <mxGeometry x="242" y="560" width="130" height="30" as="geometry" />
        </mxCell>
        <mxCell id="_YYuf0stOzUwYTYhCYQe-16" value="" style="shape=curlyBracket;whiteSpace=wrap;html=1;rounded=1;flipH=1;labelPosition=right;verticalLabelPosition=middle;align=left;verticalAlign=middle;rotation=90;" parent="1" vertex="1">
          <mxGeometry x="420" y="360" width="20" height="480" as="geometry" />
        </mxCell>
        <mxCell id="_YYuf0stOzUwYTYhCYQe-17" value="Maximum Capacity (7)" style="text;html=1;align=center;verticalAlign=middle;resizable=0;points=[];autosize=1;strokeColor=none;fillColor=none;" parent="1" vertex="1">
          <mxGeometry x="360" y="605" width="140" height="30" as="geometry" />
        </mxCell>
      </root>
    </mxGraphModel>
  </diagram>
</mxfile>
